<?xml version="1.0" encoding="utf-8"?>
<!-- Generator: Adobe Illustrator 16.0.0, SVG Export Plug-In . SVG Version: 6.00 Build 0)  -->
<!DOCTYPE svg PUBLIC "-//W3C//DTD SVG 1.1//EN" "http://www.w3.org/Graphics/SVG/1.1/DTD/svg11.dtd">
<svg version="1.1" id="Layer_1" xmlns="http://www.w3.org/2000/svg" xmlns:xlink="http://www.w3.org/1999/xlink" x="0px" y="0px"
	 width="100px" height="100px" viewBox="182.299 88.051 100 100" enable-background="new 182.299 88.051 100 100"
	 xml:space="preserve">
<g>
	<path fill="#FFFFFF" d="M279.334,111.509c-13.905-5.223-28.735,4.517-45.593,27.545l-0.352,3.084
		c10.334-3.438,22.212,5.817,26.949,1.432C267.236,129.335,285.503,115.673,279.334,111.509L279.334,111.509z"/>
	<path fill="#FFFFFF" d="M256.417,151.9c0.947-2.38,0.11-1.3-0.596-2.38c-0.837-1.3,0-2.248-0.242-2.38
		c-0.353-0.243-1.058-0.485-1.3-0.838c-0.837-2.026-4.518-1.895-6.766-2.489c-4.737-1.3-9.629-2.027-14.124-0.837
		c-0.485,0.925-0.837,1.674-1.08,2.335c-0.265-0.661-0.617-1.411-1.08-2.335c-4.518-1.19-9.387-0.485-14.124,0.837
		c-2.249,0.594-5.929,0.484-6.766,2.489c-0.242,0.353-0.947,0.595-1.3,0.838c-0.242,0.11,0.596,1.058-0.242,2.38
		c-0.706,1.058-1.543,0-0.596,2.38c0.486,1.058,0.596,1.189-0.594,1.652c-0.353,0.243,1.784,1.433,1.784,2.623
		c-0.11,4.518-2.247,3.327,1.433,3.085c2.842-0.11,0.484,2.137,2.137,3.328c1.432,0.947,2.138-0.243,3.084,2.137
		c0.485,1.19-1.057,1.785,0.947,0.595c3.086-1.896,2.49,2.49,4.871-0.353c3.084-3.327,5.575-9.034,8.439-12.825
		c0.992-1.278,1.631-2.226,2.027-3.062c0.397,0.837,1.058,1.763,2.027,3.062c2.843,3.791,5.333,9.498,8.439,12.825
		c2.38,2.843,1.786-1.542,4.87,0.353c2.027,1.19,0.484,0.595,0.947-0.595c0.948-2.38,1.653-1.19,3.085-2.137
		c1.653-1.19-0.706-3.438,2.138-3.328c3.68,0.242,1.542,1.433,1.432-3.085c0-1.19,2.137-2.38,1.786-2.623
		C255.821,153.09,255.954,152.958,256.417,151.9L256.417,151.9z"/>
	<path fill="#FFFFFF" d="M231.207,142.161l-0.353-3.085c-16.857-23.049-31.709-32.789-45.592-27.544
		c-6.169,4.165,12.12,17.804,18.995,32.062C209.017,147.978,220.872,138.701,231.207,142.161L231.207,142.161z"/>
</g>
</svg>
