<?xml version="1.0" encoding="utf-8"?>
<!-- Generator: Adobe Illustrator 16.0.0, SVG Export Plug-In . SVG Version: 6.00 Build 0)  -->
<!DOCTYPE svg PUBLIC "-//W3C//DTD SVG 1.1//EN" "http://www.w3.org/Graphics/SVG/1.1/DTD/svg11.dtd">
<svg version="1.1" id="Layer_1" xmlns="http://www.w3.org/2000/svg" xmlns:xlink="http://www.w3.org/1999/xlink" x="0px" y="0px"
	 width="100px" height="100px" viewBox="0 0 100 100" enable-background="new 0 0 100 100" xml:space="preserve">
<g>
	<linearGradient id="SVGID_1_" gradientUnits="userSpaceOnUse" x1="58.9414" y1="-5.542" x2="89.9414" y2="83.458">
		<stop  offset="0" style="stop-color:#00DEE7"/>
		<stop  offset="1" style="stop-color:#002473"/>
	</linearGradient>
	<path fill="url(#SVGID_1_)" d="M97.035,23.458c-13.904-5.223-28.734,4.517-45.592,27.546l-0.354,3.084
		c10.334-3.438,22.213,5.816,26.949,1.432C84.938,41.284,103.205,27.622,97.035,23.458L97.035,23.458z"/>
	<linearGradient id="SVGID_2_" gradientUnits="userSpaceOnUse" x1="28.8638" y1="4.9346" x2="59.8638" y2="93.9346">
		<stop  offset="0" style="stop-color:#00DEE7"/>
		<stop  offset="1" style="stop-color:#002473"/>
	</linearGradient>
	<path fill="url(#SVGID_2_)" d="M74.119,63.85c0.947-2.381,0.109-1.301-0.598-2.381c-0.836-1.3,0-2.248-0.24-2.379
		c-0.354-0.244-1.059-0.486-1.301-0.839c-0.838-2.026-4.519-1.896-6.767-2.489c-4.737-1.299-9.629-2.025-14.125-0.836
		c-0.483,0.924-0.836,1.674-1.08,2.334c-0.265-0.66-0.617-1.41-1.08-2.334c-4.518-1.189-9.387-0.484-14.123,0.836
		c-2.25,0.596-5.93,0.484-6.767,2.489c-0.241,0.353-0.946,0.595-1.3,0.839c-0.242,0.109,0.596,1.059-0.242,2.379
		c-0.706,1.059-1.543,0-0.596,2.381c0.486,1.059,0.596,1.188-0.594,1.651c-0.354,0.243,1.783,1.433,1.783,2.623
		c-0.109,4.519-2.246,3.327,1.434,3.085c2.842-0.109,0.484,2.137,2.137,3.328c1.432,0.947,2.139-0.243,3.084,2.137
		c0.484,1.19-1.057,1.785,0.947,0.596c3.086-1.896,2.49,2.49,4.871-0.354c3.084-3.326,5.574-9.033,8.438-12.824
		c0.992-1.277,1.632-2.227,2.027-3.062c0.397,0.837,1.057,1.763,2.027,3.062c2.844,3.791,5.334,9.498,8.438,12.824
		c2.381,2.844,1.786-1.542,4.871,0.354c2.024,1.189,0.481,0.596,0.944-0.596c0.949-2.38,1.654-1.189,3.086-2.137
		c1.652-1.189-0.705-3.438,2.14-3.328c3.68,0.242,1.541,1.434,1.432-3.085c0-1.19,2.138-2.38,1.785-2.623
		C73.521,65.039,73.656,64.907,74.119,63.85L74.119,63.85z"/>
	<linearGradient id="SVGID_3_" gradientUnits="userSpaceOnUse" x1="15.0273" y1="9.7539" x2="46.0273" y2="98.7539">
		<stop  offset="0" style="stop-color:#00DEE7"/>
		<stop  offset="1" style="stop-color:#002473"/>
	</linearGradient>
	<path fill="url(#SVGID_3_)" d="M48.909,54.109l-0.354-3.084C31.699,27.977,16.846,18.236,2.963,23.481
		c-6.169,4.165,12.12,17.804,18.995,32.062C26.719,59.928,38.574,50.65,48.909,54.109L48.909,54.109z"/>
</g>
</svg>
