<?xml version="1.0" encoding="utf-8"?>
<!-- Generator: Adobe Illustrator 23.0.6, SVG Export Plug-In . SVG Version: 6.00 Build 0)  -->
<svg version="1.1" id="Layer_1" xmlns="http://www.w3.org/2000/svg" xmlns:xlink="http://www.w3.org/1999/xlink" x="0px" y="0px"
	 viewBox="0 0 1150 278.4" style="enable-background:new 0 0 1150 278.4;" xml:space="preserve">
<style type="text/css">
	.st0{fill-rule:evenodd;clip-rule:evenodd;}
</style>
<g>
	<path class="st0" d="M439.8,17.6c-63.1-23.7-130.4,20.5-206.9,125l-1.6,14c46.9-15.6,100.8,26.4,122.3,6.5
		C384.9,98.5,467.8,36.5,439.8,17.6L439.8,17.6z"/>
	<path class="st0" d="M335.8,200.9c4.3-10.8,0.5-5.9-2.7-10.8c-3.8-5.9,0-10.2-1.1-10.8c-1.6-1.1-4.8-2.2-5.9-3.8
		c-3.8-9.2-20.5-8.6-30.7-11.3c-21.5-5.9-43.7-9.2-64.1-3.8c-2.2,4.2-3.8,7.6-4.9,10.6c-1.2-3-2.8-6.4-4.9-10.6
		c-20.5-5.4-42.6-2.2-64.1,3.8c-10.2,2.7-26.9,2.2-30.7,11.3c-1.1,1.6-4.3,2.7-5.9,3.8c-1.1,0.5,2.7,4.8-1.1,10.8
		c-3.2,4.8-7,0-2.7,10.8c2.2,4.8,2.7,5.4-2.7,7.5c-1.6,1.1,8.1,6.5,8.1,11.9c-0.5,20.5-10.2,15.1,6.5,14c12.9-0.5,2.2,9.7,9.7,15.1
		c6.5,4.3,9.7-1.1,14,9.7c2.2,5.4-4.8,8.1,4.3,2.7c14-8.6,11.3,11.3,22.1-1.6c14-15.1,25.3-41,38.3-58.2c4.5-5.8,7.4-10.1,9.2-13.9
		c1.8,3.8,4.8,8,9.2,13.9c12.9,17.2,24.2,43.1,38.3,58.2c10.8,12.9,8.1-7,22.1,1.6c9.2,5.4,2.2,2.7,4.3-2.7c4.3-10.8,7.5-5.4,14-9.7
		c7.5-5.4-3.2-15.6,9.7-15.1c16.7,1.1,7,6.5,6.5-14c0-5.4,9.7-10.8,8.1-11.9C333.1,206.3,333.7,205.7,335.8,200.9L335.8,200.9z"/>
	<path class="st0" d="M221.4,156.7l-1.6-14C143.3,38.1,75.9-6.1,12.9,17.7c-28,18.9,55,80.8,86.2,145.5
		C120.7,183.1,174.5,141,221.4,156.7L221.4,156.7z"/>
</g>
<g>
	<g>
		<path d="M601.5,77.2c-3-5.3-8.1-9.2-15-11.8c-6.6-2.4-16.4-3.6-29.7-3.6c-12.4,0-22.2,1.2-29.2,3.6c-7.1,2.6-12.1,6.6-15.3,12.1
			c-3.2,5.5-5,14-5.6,25.2v108.8c0,3.7,2.7,7.1,6.3,7.3c4.2,0.4,7.8-2.9,7.8-7.1v-62.8h47.7c4.2,0,7.5-3.3,7.5-7.5l0,0
			c0-4.2-3.3-7.5-7.5-7.5h-47.7v-33.3c0.6-8.2,1.7-13.8,3.6-16.8c3.3-5.5,14.1-8.4,32.3-8.4c18.6,0,29.4,2.7,32.3,8.1
			c1.9,2.9,3.2,8.4,3.6,16.4v26.6v7.2v15v5.2v57.2c0,3.7,2.7,7.1,6.3,7.3c4.2,0.4,7.8-2.9,7.8-7.1V101.7
			C606.2,90.9,604.5,82.5,601.5,77.2z"/>
		<path d="M683.5,77.2h-40.6c-4,0-7.3-3.3-7.3-7.3v-0.6c0-4,3.3-7.3,7.3-7.3h97.2c4,0,7.2,3.3,7.2,7.2v0.7c0,4-3.3,7.2-7.2,7.2
			h-41.5v134.3c0,4.2-3.3,7.5-7.5,7.5l0,0c-4.2,0-7.5-3.3-7.5-7.5V77.2H683.5z"/>
		<path d="M870.7,77.2c-3-5.3-8.1-9.2-15-11.8c-6.6-2.4-16.4-3.6-29.7-3.6c-12.4,0-22.2,1.2-29.2,3.6c-7.1,2.6-12.1,6.6-15.3,12.1
			c-3.2,5.5-5,14-5.6,25.2v108.8c0,3.7,2.7,7.1,6.3,7.3c4.2,0.4,7.8-2.9,7.8-7.1v-62.8h47.7c4.2,0,7.5-3.3,7.5-7.5l0,0
			c0-4.2-3.3-7.5-7.5-7.5h-47.7v-33.3c0.6-8.2,1.7-13.8,3.6-16.8c3.3-5.5,14.1-8.4,32.3-8.4c18.6,0,29.4,2.7,32.3,8.1
			c1.9,2.9,3.2,8.4,3.6,16.4v26.5v7.5v15v5v57.4c0,3.7,2.7,7.1,6.3,7.3c4.2,0.4,7.8-2.9,7.8-7.1V102
			C875.5,90.9,873.7,82.5,870.7,77.2z"/>
		<path d="M1004,205.1h-37.9c-11.7,0-20.6-1-26.9-2.9s-9.9-6.8-10.9-8.5c-1.4-2.2-2.6-4.3-3.3-10.8l-0.3-5.5V69.2
			c0-4-3.2-7.2-7.2-7.2s-7.2,3.2-7.2,7.2v107.3l0.3,5.8c0.6,6.3,1.4,11.5,2.7,15.5c1.6,4.8,4,8.5,7.3,11.5c3,3,6.5,5,10.5,6.3
			c3.5,1.2,8.4,2.2,15,2.7c6.5,0.6,13.2,0.9,20,0.9h37.9c3.9,0,6.9-3.2,6.9-6.9C1010.9,208.1,1007.8,205.1,1004,205.1z"/>
		<path d="M1131,77.2c-3-5.3-8.1-9.2-15-11.8c-6.6-2.4-16.4-3.6-29.7-3.6c-12.4,0-22.2,1.2-29.2,3.6c-7.1,2.6-12.1,6.6-15.3,12.1
			c-3.2,5.5-5,14-5.6,25.2v108.8c0,3.7,2.7,7.1,6.3,7.3c4.2,0.4,7.8-2.9,7.8-7.1v-62.8h47.7c4.2,0,7.5-3.3,7.5-7.5l0,0
			c0-4.2-3.3-7.5-7.5-7.5h-47.7v-33.3c0.6-8.2,1.7-13.8,3.6-16.8c3.3-5.5,14.1-8.4,32.2-8.4c18.6,0,29.4,2.7,32.3,8.1
			c1.9,2.9,3.2,8.4,3.6,16.4V128v5.9v15v6.5v55.9c0,3.7,2.7,7.1,6.3,7.3c4.2,0.4,7.8-2.9,7.8-7.1V101.7
			C1135.8,90.9,1134,82.5,1131,77.2z"/>
	</g>
</g>
</svg>
